# xmcd CD database file
#
# Track frame offsets:
#	150
#	18196
#	42787
#	60901
#	77981
#	102345
#	122576
#	141852
#	161662
#	179429
#	194855
#	216329
#	222308
#	242994
#	260982
#	280358
#
# Disc length: 3975 seconds
#
# Revision: 3
# Processed by: cddbd v1.5.2PL0 Copyright (c) Steve Scherf et al.
# Submitted via: CDex 1.77
#
DISCID=fa0f8510
DTITLE=Will.I.Am - Songs About Girls
DYEAR=2007
DGENRE=Hip-Hop
TTITLE0=Over
TTITLE1=Heartbreaker
TTITLE2=I Got It From My Mama
TTITLE3=She's a Star
TTITLE4=Get Your Money
TTITLE5=The Donque Song (feat. Snoop Dogg)
TTITLE6=Impatient
TTITLE7=One More Chance
TTITLE8=Invisible
TTITLE9=Fantastic
TTITLE10=Fly Girl
TTITLE11=Dynamite Interlude
TTITLE12=Ain't It Pretty
TTITLE13=Make It Funky
TTITLE14=S.O.S. (Mother Nature)
TTITLE15=Spending Money
EXTD=YEAR: 2007
EXTT0=
EXTT1=
EXTT2=
EXTT3=
EXTT4=
EXTT5=
EXTT6=
EXTT7=
EXTT8=
EXTT9=
EXTT10=
EXTT11=
EXTT12=
EXTT13=
EXTT14=
EXTT15=
PLAYORDER=
